<?xml version="1.0" encoding="UTF-8"?><svg id="Layer_1" xmlns="http://www.w3.org/2000/svg" viewBox="0 0 635 635"><defs><style>.cls-1{fill:#fdfdfb;}.cls-2{fill:#f9de60;}.cls-3{fill:#fcfcf9;}</style></defs><path class="cls-2" d="M613.84,610.2c-22.95,10.47-45.6,5.99-60.52-10.01-12.3-13.19-25.45-25.59-38.48-38.07-6.21-5.95-13.28-5.95-20.21-.87-25.07,18.42-52.72,32.3-81.77,42.63-44.69,15.89-91.71,19.6-138.07,13.04-49.87-7.06-96.26-26.03-137.47-56.34-9.1-6.7-10.32-10.83-1.72-18.98,16.98-16.11,16.42-15.84,36.3-2.02,18.93,13.16,40.4,20.93,62.25,28.85,40.83,14.8,82.46,14,123.88,10.88,28.28-2.13,56.15-11.47,81.16-26.21,8.98-5.29,18.49-9.6,27.1-15.84,7.52-5.45,11.2-10.25,5.39-17.81-5.37-6.99-12.79-9.72-21.07-3.66-16.16,11.82-34.19,19.42-53.02,26.23-20.47,7.4-40.89,11.18-62.62,12.76-69.51,5.05-129.36-16.85-181.91-61.11-6.42-5.41-10.5-4.79-15.98,1.18-8.65,9.43-18.65,17.65-27.11,27.23-6.25,7.08-10.35,6.74-16.46-.05-28.38-31.52-50.34-66.79-64.42-106.9-18.05-51.45-21.37-104.35-11.79-157.46,7.9-43.77,27.56-83.41,52.43-120.17,2.25-3.32,6.75-14.11,14.42-4.84,6.37,7.7,23.61,11.15,14.68,25.75-16.39,26.78-31.6,53.82-40.3,84.25-11.2,39.14-13.3,78.56-6.64,118.71,6.21,37.44,22.87,70.77,39.22,104.32,3.26,6.68,8.29,13.82,14.98,8.48,6.13-4.9,18.95-10.16,10.68-22.71-14.98-22.72-28.13-47.11-33.9-73.11-7.41-33.42-11.39-67.09-4.2-102.83,9.36-46.54,28.81-86,58.78-121.48,5.32-6.3,5.31-12.18-1.05-18.15-8.93-8.38-16.78-18.05-26.35-25.57-8.9-7-8.45-12.62-.58-18.93,30.73-24.64,63.33-45.29,100.69-59.66,40.51-15.59,81.57-20.19,124.06-18.51,44.74,1.77,86.68,13.5,126.03,35.09,12.43,6.82,24.67,13.77,35.64,22.7,5.03,4.09,12.86,8.89,3.53,15.82-7.68,5.7-10.73,22.41-25.89,12.17-29.18-19.72-60.49-33.4-94.99-42.38-38.28-9.97-76.6-9.6-113.94-3.56-36.18,5.86-70.77,20.64-101.17,43.09-5.82,4.3-7.69,8.66-3.13,12.53,5.04,4.28,7.81,16.63,18.2,9.27,26.91-19.05,57.31-30.85,88.62-38.62,19.84-4.93,41.46-3.86,62.25-3.49,48.69,.86,92,17.94,131.05,46.51,2.1,1.54,4.57,2.59,6.59,4.22q20.96,17.01,39.83-1.97c25.44-25.59,24.9-25.15,48.96,3.65,29.98,35.89,48.05,77.92,58.11,122.34,6.38,28.17,11.26,57.86,7.57,87.63-6.99,56.23-24.68,108.43-58.29,154.5-2.76,3.79-6.65,14.34-14.13,5.37-6.46-7.75-23.73-10.84-13.43-27.3,14.97-23.91,28.55-48.3,36.57-75.85,6.59-22.63,10.65-45.13,11.72-68.7,2.58-56.57-10.66-108.49-41.67-155.88-10.75-16.43-15.11-16.61-26.16-3.64-5.98,7.02-.8,11.04,1.91,15.39,12.29,19.75,23.39,40.04,29.59,62.61,10.72,39,14.09,77.9,4.96,118.25-6.49,28.68-15.78,55.51-31.47,80.16-3.88,6.1-6.38,17.24-16.76,12-13.59-6.86-19.04-21.18-13.15-30.51,22.3-35.28,33.14-73.83,30.81-115.31-4.77-84.98-46.45-145.13-123.93-180.74-28.82-13.24-59.16-20.91-90.34-18.2-89.15,7.73-160.78,54.82-188.26,148.73-18.98,64.88-7.93,126.02,33.93,180.47,33.9,44.1,78.56,67.48,133.31,77.74,27.19,5.1,52.38,0,77.66-3,19.01-2.25,38.93-10.56,55.85-22.27,5.17-3.58,15.23-5.71,8.53-14.65-5.6-7.47-11.69-18.82-24.46-11.38-30.29,17.65-62.67,25.98-97.75,23.78-57.05-3.59-101.21-30.06-134.29-75.88-31.08-43.05-36.45-92.15-25.81-141.74,7.01-32.65,25.63-61.39,51.16-84.87,24.26-22.32,52.85-38.03,84.07-43.41,25.31-4.36,52.11-4.45,78.92,3.13,29.89,8.45,55.43,22.12,77.28,43.06,26.05,24.96,41.53,55.29,50.13,91.03,9.62,39.99,1.26,75.77-14.52,111.29-5.14,11.57-11.81,22.63-20.96,31.75-8.32,8.3-11.01,14.54-.23,24.81,43.6,41.58,86.12,84.31,128.86,126.78,11.13,11.06,21.63,22.74,32.69,34.44Zm-298.48-152.45c82.38-3.85,143.14-59.74,144.25-140.8,1.08-78.9-59.38-139.78-137.36-143.22-87.82-3.88-150.27,72.01-148.56,139.34,2.28,89.31,66.28,140.3,141.67,144.67Z"/><path class="cls-2" d="M415.79,316.36c.25-11.75,.72-21.35-2.29-30.81-1.6-5.01,.41-11.47,4.84-12.05,4.7-.62,8.62,4.29,9.99,10.08,10.55,44.7-.07,83.34-32.54,115.93-7.03,7.06-17.11,8.46-24.99,13.95-2.42,1.69-6.09,1.14-6.27-2.1-.25-4.48,.73-8.54,5.67-11.67,13.53-8.56,26.26-17.19,33.25-33.61,7.2-16.91,14.8-32.94,12.35-49.72Z"/><path class="cls-2" d="M411.38,248.9c-.65,10.18-7.49,10.62-11.46,7.59-8.35-6.36-15.52-14.39-22.62-22.23-3.19-3.52-2.42-8.26,.78-11.8,4.79-5.31,6.91,.79,10.3,2.53,11.02,5.65,16.92,15.63,23,23.91Z"/></svg>